<svg id="Layer_1" data-name="Layer 1" xmlns="http://www.w3.org/2000/svg" viewBox="0 0 20.49 15.83"><defs><style>.cls-1{fill:#c7212b;}</style></defs><title>agenda</title><path class="cls-1" d="M24.83,10.49A11,11,0,0,0,21.57,10a8.66,8.66,0,0,0-5.12,1.4A8.66,8.66,0,0,0,11.33,10a8.66,8.66,0,0,0-5.12,1.4V25.06a.5.5,0,0,0,.47.47c.09,0,.14,0,.23,0a11.37,11.37,0,0,1,4.42-1,8.66,8.66,0,0,1,5.12,1.4,11.22,11.22,0,0,1,5.12-1.4,9.48,9.48,0,0,1,4.42,1,.42.42,0,0,0,.23,0A.5.5,0,0,0,26.7,25V11.42A6.35,6.35,0,0,0,24.83,10.49Zm.93,13.74a17.93,17.93,0,0,0-4.19-.7,11.22,11.22,0,0,0-5.12,1.4,11.22,11.22,0,0,0-5.12-1.4,17.93,17.93,0,0,0-4.19.7V11.65a17.93,17.93,0,0,1,4.19-.7,11.22,11.22,0,0,1,5.12,1.4A11.22,11.22,0,0,1,21.57,11a17.93,17.93,0,0,1,4.19.7Z" transform="translate(-6.21 -10.02)"/><line class="cls-1" x1="10.25" y1="1.89" x2="10.25" y2="14.65"/><path class="cls-1" d="M16.45,25.13a.47.47,0,0,1-.47-.47V11.91a.47.47,0,1,1,.93,0V24.67A.47.47,0,0,1,16.45,25.13Z" transform="translate(-6.21 -10.02)"/><path class="cls-1" d="M18.8,14.58a7.9,7.9,0,0,1,4.5,0" transform="translate(-6.21 -10.02)"/><path class="cls-1" d="M23.31,15a.47.47,0,0,1-.17,0,7.41,7.41,0,0,0-4.2,0,.47.47,0,0,1-.28-.89,8.31,8.31,0,0,1,4.81,0,.47.47,0,0,1-.17.9Z" transform="translate(-6.21 -10.02)"/><path class="cls-1" d="M18.8,17.18a7.9,7.9,0,0,1,4.5,0" transform="translate(-6.21 -10.02)"/><path class="cls-1" d="M23.31,17.65a.47.47,0,0,1-.17,0,7.41,7.41,0,0,0-4.2,0,.47.47,0,1,1-.28-.89,8.3,8.3,0,0,1,4.81,0,.47.47,0,0,1-.17.9Z" transform="translate(-6.21 -10.02)"/><path class="cls-1" d="M18.8,19.82a7.9,7.9,0,0,1,4.5,0" transform="translate(-6.21 -10.02)"/><path class="cls-1" d="M23.31,20.29a.47.47,0,0,1-.17,0,7.41,7.41,0,0,0-4.2,0,.47.47,0,1,1-.28-.89,8.31,8.31,0,0,1,4.81,0,.47.47,0,0,1-.17.9Z" transform="translate(-6.21 -10.02)"/></svg>