<svg id="Layer_1" data-name="Layer 1" xmlns="http://www.w3.org/2000/svg" viewBox="0 0 41.05 37"><defs><style>.cls-1{fill:none;stroke:#95722d;stroke-miterlimit:10;stroke-width:2px;}.cls-2{fill:#96722e;}</style></defs><title>alert-warning</title><path class="cls-1" d="M21,38H5.56a4,4,0,0,1-3.5-6L9.82,18.44,17.55,5a4,4,0,0,1,7,0l7.73,13.45L40,32a4,4,0,0,1-3.5,6Z" transform="translate(-0.52 -2)"/><path class="cls-2" d="M23,25.31l.26-9.08a.29.29,0,0,0-.15-.26.54.54,0,0,0-.35-.12H19.57a.54.54,0,0,0-.35.12.29.29,0,0,0-.15.26l.25,9.08a.31.31,0,0,0,.15.26.56.56,0,0,0,.35.11h2.71a.53.53,0,0,0,.34-.11A.37.37,0,0,0,23,25.31Zm0,5V27.56a.48.48,0,0,0-.13-.34.43.43,0,0,0-.32-.14H19.79a.5.5,0,0,0-.48.48v2.78a.5.5,0,0,0,.48.48h2.81a.43.43,0,0,0,.32-.14A.48.48,0,0,0,23,30.34Z" transform="translate(-0.52 -2)"/></svg>