<svg id="Layer_1" data-name="Layer 1" xmlns="http://www.w3.org/2000/svg" viewBox="0 0 40 40"><defs><style>.cls-1{fill:none;stroke:#80af79;stroke-miterlimit:10;stroke-width:2px;}.cls-2{fill:#80af79;}</style></defs><title>alert-success</title><circle class="cls-1" cx="20" cy="20" r="19"/><path class="cls-2" d="M30,16.4a.8.8,0,0,1-.25.58L18,28.75a.79.79,0,0,1-1.16,0L11.4,23.31a.79.79,0,0,1,0-1.16l1.26-1.26a.79.79,0,0,1,1.16,0l3.59,3.59,9.93-9.93a.79.79,0,0,1,1.16,0l1.26,1.26a.8.8,0,0,1,.25.58" transform="translate(-0.58 -1.13)"/></svg>