<svg id="Layer_1" data-name="Layer 1" xmlns="http://www.w3.org/2000/svg" viewBox="0 0 40 40"><defs><style>.cls-1{fill:none;stroke:#447eaf;stroke-miterlimit:10;stroke-width:2px;}.cls-2{fill:#447eaf;}</style></defs><title>alert-info</title><circle class="cls-1" cx="20" cy="20" r="19"/><path class="cls-2" d="M19.29,19.53,19,29.28a.31.31,0,0,0,.16.28.58.58,0,0,0,.38.13H23a.58.58,0,0,0,.38-.13.31.31,0,0,0,.16-.28l-.27-9.75a.34.34,0,0,0-.16-.27.6.6,0,0,0-.38-.12h-2.9a.57.57,0,0,0-.37.12A.39.39,0,0,0,19.29,19.53Zm0-5.4v3a.52.52,0,0,0,.14.37.46.46,0,0,0,.35.15h3a.54.54,0,0,0,.52-.52v-3a.54.54,0,0,0-.52-.52h-3a.46.46,0,0,0-.35.15A.52.52,0,0,0,19.26,14.13Z" transform="translate(-1.13 -1.13)"/></svg>