<svg id="Layer_1" data-name="Layer 1" xmlns="http://www.w3.org/2000/svg" viewBox="0 0 273.89 113.5"><defs><style>.cls-1{fill:#fff;stroke-width:2px;}.cls-1,.cls-2,.cls-3{stroke:#c6202b;stroke-miterlimit:10;}.cls-2{fill:#f8bdc3;}.cls-2,.cls-3{stroke-width:1.98px;}.cls-3{fill:none;}.cls-4{fill:#c6202b;}</style></defs><title>modal-token</title><path class="cls-1" d="M265.15,24.11H130.55C120.3,11.11,104.19,2,86.06,2A56,56,0,0,0,30,58.06c0,31,25.1,55.49,56.07,55.49a53.76,53.76,0,0,0,42.79-20.43H265.15c4.56,0,8.28-2.59,8.28-7.15V32.17A8.11,8.11,0,0,0,265.15,24.11Z" transform="translate(-0.54 -1.04)"/><rect class="cls-2" x="139.37" y="42.78" width="109.6" height="33.39" rx="6.84" ry="6.84"/><path class="cls-2" d="M108,59.06a21.75,21.75,0,0,1,9-17.62,34.48,34.48,0,1,0,0,35.23A21.75,21.75,0,0,1,108,59.06Z" transform="translate(-0.54 -1.04)"/><circle class="cls-3" cx="14.7" cy="58.02" r="13.71"/><rect class="cls-4" x="19.51" y="50.47" width="13.4" height="15.34" rx="6.7" ry="6.7"/><path class="cls-4" d="M175.31,55.74h-3.51V54.48h8.54v1.27h-3.52V66h-1.51Z" transform="translate(-0.54 -1.04)"/><path class="cls-4" d="M191,60.12c0,4-2.41,6.07-5.35,6.07s-5.18-2.36-5.18-5.85c0-3.66,2.27-6.06,5.35-6.06S191,56.7,191,60.12Zm-8.95.19c0,2.46,1.33,4.67,3.68,4.67s3.7-2.17,3.7-4.79c0-2.29-1.2-4.69-3.68-4.69S182.07,57.78,182.07,60.31Z" transform="translate(-0.54 -1.04)"/><path class="cls-4" d="M193,54.48h1.49V60h.05c.31-.45.62-.86.91-1.23l3.52-4.33h1.85l-4.17,4.89L201.1,66h-1.76l-3.8-5.66-1.09,1.27V66H193Z" transform="translate(-0.54 -1.04)"/><path class="cls-4" d="M208.2,60.6h-4.48v4.16h5V66h-6.48V54.48h6.23v1.25h-4.74v3.64h4.48Z" transform="translate(-0.54 -1.04)"/><path class="cls-4" d="M210.64,66V54.48h1.63l3.7,5.83A32.81,32.81,0,0,1,218,64.06l0,0c-.14-1.54-.17-2.94-.17-4.74V54.48h1.4V66h-1.5l-3.66-5.85A36.67,36.67,0,0,1,212,56.31l-.05,0c.08,1.45.12,2.84.12,4.75V66Z" transform="translate(-0.54 -1.04)"/><rect class="cls-4" x="149.71" y="60.26" width="6.43" height="2.25"/><rect class="cls-4" x="149.71" y="64.07" width="6.43" height="2.25"/><rect class="cls-4" x="149.71" y="56.44" width="6.43" height="2.25"/><rect class="cls-4" x="149.71" y="52.63" width="6.43" height="2.25"/></svg>