<svg id="Layer_1" data-name="Layer 1" xmlns="http://www.w3.org/2000/svg" viewBox="0 0 99.14 93.04"><defs><style>.cls-1{fill:#fcbec4;}.cls-2{fill:#fff;}.cls-3{fill:#c7212b;}</style></defs><title>modal-print</title><path class="cls-1" d="M91.46,83.11H10.75a6.83,6.83,0,0,1-6.81-6.81V34.85A6.83,6.83,0,0,1,10.75,28H91.46a6.83,6.83,0,0,1,6.81,6.81V76.29a6.83,6.83,0,0,1-6.81,6.81" transform="translate(-1.25 -6.37)"/><rect class="cls-2" x="20.15" y="56.49" width="58.07" height="33.5"/><path class="cls-3" d="M69.41,73.08H32.23a1.55,1.55,0,1,0,0,3.1H69.41a1.55,1.55,0,0,0,0-3.1" transform="translate(-1.25 -6.37)"/><path class="cls-3" d="M69.41,83.92H32.23a1.55,1.55,0,1,0,0,3.09H69.41a1.55,1.55,0,1,0,0-3.09" transform="translate(-1.25 -6.37)"/><path class="cls-3" d="M90.76,25.06H82.57V12.57a6.2,6.2,0,0,0-6.19-6.19H25.26a6.2,6.2,0,0,0-6.19,6.19V25.06H10.87a9.64,9.64,0,0,0-9.62,9.63V75.38A9.63,9.63,0,0,0,10.87,85h3.69a1.55,1.55,0,0,0,0-3.1H10.87a6.53,6.53,0,0,1-6.52-6.52V34.69a6.53,6.53,0,0,1,6.52-6.53H90.76a6.53,6.53,0,0,1,6.53,6.53V75.38a6.53,6.53,0,0,1-6.53,6.52H88A1.55,1.55,0,1,0,88,85h2.77a9.63,9.63,0,0,0,9.62-9.62V34.69a9.64,9.64,0,0,0-9.62-9.63" transform="translate(-1.25 -6.37)"/><path class="cls-3" d="M16.68,37.16a3.1,3.1,0,1,1-3.1-3.1,3.1,3.1,0,0,1,3.1,3.1" transform="translate(-1.25 -6.37)"/><path class="cls-3" d="M26.47,37.16a3.1,3.1,0,1,1-3.09-3.1,3.09,3.09,0,0,1,3.09,3.1" transform="translate(-1.25 -6.37)"/><path class="cls-3" d="M36.28,37.16a3.1,3.1,0,1,1-3.1-3.1,3.09,3.09,0,0,1,3.1,3.1" transform="translate(-1.25 -6.37)"/><path class="cls-3" d="M18.29,99.41H83.34V59.14H18.29ZM22,62.86H79.62V95.69H22Z" transform="translate(-1.25 -6.37)"/><path class="cls-2" d="M22.16,12.72a3.1,3.1,0,0,1,3.09-3.09H76.38a3.09,3.09,0,0,1,3.09,3.09v12.4H22.16Z" transform="translate(-1.25 -6.37)"/></svg>